HIERARCHY
ROOT Hips
{
    OFFSET 0.000000 0.000000 0.000000
    CHANNELS 6 Xposition Yposition Zposition Zrotation Xrotation Yrotation
    JOINT Spine
    {
        OFFSET -0.000000 14.517291 0.000000
        CHANNELS 3 Zrotation Xrotation Yrotation
        JOINT Spine1
        {
            OFFSET -0.000000 37.558300 0.000000
            CHANNELS 3 Zrotation Xrotation Yrotation
            JOINT Neck
            {
                OFFSET -0.000000 37.404057 3.400369
                CHANNELS 3 Zrotation Xrotation Yrotation
                JOINT Head
                {
                    OFFSET -0.000000 24.785618 -3.540803
                    CHANNELS 3 Zrotation Xrotation Yrotation
                    End Site
                    {
                        OFFSET -0.000000 35.408028 0.000000
                    }
                }
            }
            JOINT LeftShoulder
            {
                OFFSET 6.992933 33.973492 -0.192664
                CHANNELS 3 Zrotation Xrotation Yrotation
                JOINT LeftArm
                {
                    OFFSET 21.527611 0.000000 0.000000
                    CHANNELS 3 Zrotation Xrotation Yrotation
                    JOINT LeftForeArm
                    {
                        OFFSET 56.353916 0.000000 0.000000
                        CHANNELS 3 Zrotation Xrotation Yrotation
                        JOINT LeftHand
                        {
                            OFFSET 47.774071 0.000000 0.000000
                            CHANNELS 3 Zrotation Xrotation Yrotation
                            End Site
                            {
                                OFFSET 26.556021 0.000000 0.000000
                            }
                        }
                    }
                }
            }
            JOINT RightShoulder
            {
                OFFSET -7.065357 33.973492 -0.192664
                CHANNELS 3 Zrotation Xrotation Yrotation
                JOINT RightArm
                {
                    OFFSET -21.527611 0.000000 0.000000
                    CHANNELS 3 Zrotation Xrotation Yrotation
                    JOINT RightForeArm
                    {
                        OFFSET -56.353916 0.000000 0.000000
                        CHANNELS 3 Zrotation Xrotation Yrotation
                        JOINT RightHand
                        {
                            OFFSET -47.774071 0.000000 0.000000
                            CHANNELS 3 Zrotation Xrotation Yrotation
                            End Site
                            {
                                OFFSET -26.556021 0.000000 0.000000
                            }
                        }
                    }
                }
            }
        }
    }
    JOINT LeftUpLeg
    {
        OFFSET 17.704014 0.000000 0.000000
        CHANNELS 3 Zrotation Xrotation Yrotation
        JOINT LeftLeg
        {
            OFFSET -0.000000 -81.181816 0.000000
            CHANNELS 3 Zrotation Xrotation Yrotation
            JOINT LeftFoot
            {
                OFFSET -0.000000 -62.821102 0.000000
                CHANNELS 3 Zrotation Xrotation Yrotation
                JOINT LeftToeBase
                {
                    OFFSET -0.000000 -11.507608 26.556021
                    CHANNELS 3 Zrotation Xrotation Yrotation
                    End Site
                    {
                        OFFSET -0.000000 0.000000 7.081605
                    }
                }
            }
        }
    }
    JOINT RightUpLeg
    {
        OFFSET -17.704014 0.000000 0.000000
        CHANNELS 3 Zrotation Xrotation Yrotation
        JOINT RightLeg
        {
            OFFSET -0.000000 -81.181816 0.000000
            CHANNELS 3 Zrotation Xrotation Yrotation
            JOINT RightFoot
            {
                OFFSET -0.000000 -62.821102 0.000000
                CHANNELS 3 Zrotation Xrotation Yrotation
                JOINT RightToeBase
                {
                    OFFSET -0.000000 -11.507608 26.556021
                    CHANNELS 3 Zrotation Xrotation Yrotation
                    End Site
                    {
                        OFFSET -0.000000 0.000000 7.081605
                    }
                }
            }
        }
    }
}
MOTION
Frames:    13
Frame Time:    0.008333
54.236000    153.156693    -72.186432    -1.258540    2.338212    14.003162    3.170480    1.068357    -1.146064    -11.765776    -1.790372    -0.554353    16.793631    3.195498    5.540647    0.201731    -3.622980    3.769145    13.966125    -3.690653    -14.302673    -20.873289    -28.679609    -30.401587    -17.082594    -32.123497    -100.186363    -29.828773    -40.918713    -35.646130    -15.877437    -0.998101    -4.611656    16.800758    18.478758    12.021111    12.383622    14.653870    -0.578122    9.264595    15.804476    13.874943    28.133310    -1.134505    -1.333692    -7.767253    28.188272    -21.097658    -19.951607    -22.097361    29.999403    0.000000    0.000000    0.000000    -16.056639    -31.414791    3.688438    14.799426    37.834949    -10.268721    2.925757    -5.138769    -13.229630    0.000000    0.000000    0.000000    
54.786255    153.134781    -72.464577    -1.308820    2.262857    13.984466    3.105987    1.115359    -1.114475    -11.671009    -1.804065    -0.543487    16.877113    3.189687    5.546601    0.175112    -3.551919    3.759514    13.988934    -3.709786    -14.375717    -20.740517    -28.512465    -30.278675    -17.045666    -32.212994    -100.098000    -29.848438    -40.918018    -35.713623    -15.846784    -0.978386    -4.635533    16.847401    18.429495    11.961025    12.382849    14.655286    -0.575203    9.321951    15.809597    13.840617    28.070084    -1.160099    -1.027694    -7.782823    28.422352    -21.348476    -19.555252    -22.350576    29.862379    0.000000    0.000000    0.000000    -16.223986    -31.280056    3.704298    14.766833    37.531139    -10.250216    3.031772    -4.817661    -13.252705    0.000000    0.000000    0.000000    
55.325596    153.113495    -72.740173    -1.343312    2.206799    13.966944    3.062352    1.169910    -1.084004    -11.651124    -1.852674    -0.537669    16.944927    3.217577    5.525211    0.197885    -3.518165    3.737057    14.075183    -3.659686    -14.402042    -20.683151    -28.437195    -30.258274    -17.067411    -32.265316    -100.015625    -29.849747    -40.970100    -35.675838    -15.799159    -0.966631    -4.678992    16.907118    18.554560    11.955392    12.327697    14.567050    -0.615099    9.351785    15.733152    13.889749    27.974268    -1.216042    -0.756688    -7.809155    28.680696    -21.619036    -19.119659    -22.630726    29.820875    0.000000    0.000000    0.000000    -16.396715    -31.169567    3.587406    14.605303    37.283455    -10.159537    3.151067    -4.485644    -13.147406    0.000000    0.000000    0.000000    
55.851128    153.096725    -73.009468    -1.374166    2.161345    13.961257    2.994739    1.200068    -1.049449    -11.583851    -1.871774    -0.526863    16.992395    3.208631    5.506682    0.185425    -3.457599    3.708346    14.091904    -3.662089    -14.474959    -20.559271    -28.285339    -30.167770    -17.002249    -32.393528    -99.908066    -29.967133    -40.947506    -35.739418    -15.772804    -0.952760    -4.721996    16.955593    18.563225    11.890961    12.320666    14.554908    -0.588977    9.335212    15.718223    13.913006    27.866585    -1.305149    -0.585916    -7.876856    28.968491    -21.790453    -18.691587    -22.927528    29.810080    0.000000    0.000000    0.000000    -16.591118    -31.053297    3.509515    14.511827    36.994320    -10.153069    3.290968    -4.175595    -13.069603    0.000000    0.000000    0.000000    
56.356777    153.078705    -73.261719    -1.397276    2.089510    13.965854    3.011154    1.271663    -1.077660    -11.760120    -1.618779    -0.512755    17.246126    2.419302    5.611694    0.179636    -2.875019    3.661819    14.493942    -3.903792    -13.984292    -20.849535    -28.096472    -30.575697    -17.035500    -32.406944    -99.908928    -29.754150    -41.074810    -35.614288    -15.571630    -1.281747    -5.100550    16.848837    18.659473    12.089170    12.378208    14.590733    -0.599549    9.373623    15.759730    13.912381    27.752113    -1.403970    -0.478647    -7.951552    29.312784    -21.954302    -18.239151    -23.228439    29.869747    0.000000    0.000000    0.000000    -16.775331    -30.909603    3.317394    14.342418    36.758179    -9.966364    3.449895    -3.911788    -13.063080    0.000000    0.000000    0.000000    
56.836628    153.059052    -73.516823    -1.432200    2.057368    13.955637    2.855049    1.269594    -1.035323    -11.420728    -1.903334    -0.522569    16.989744    3.247966    5.489733    0.238254    -3.399823    3.706097    14.102299    -3.629663    -14.506435    -20.318653    -28.036516    -30.010527    -17.026655    -32.551090    -99.767593    -29.893263    -41.093845    -35.727406    -15.790767    -0.940557    -4.736135    17.089840    18.673641    11.796673    12.298517    14.515208    -0.579870    9.384402    15.686090    13.945206    27.638729    -1.549413    -0.420715    -8.049474    29.667841    -22.025656    -17.818031    -23.527983    29.932438    0.000000    0.000000    0.000000    -16.948750    -30.801544    3.207690    14.220081    36.485973    -9.888132    3.595730    -3.653343    -12.989294    0.000000    0.000000    0.000000    
57.300282    153.044754    -73.758911    -1.460962    2.025710    13.979294    2.790970    1.267916    -1.036908    -11.367637    -1.910379    -0.523190    17.062294    3.284369    5.503836    0.168772    -3.376384    3.705597    14.118036    -3.575390    -14.547869    -20.228285    -27.988888    -29.935566    -17.079695    -32.572407    -99.721504    -29.858841    -41.160057    -35.723610    -15.773755    -0.891121    -4.752621    17.145138    18.645901    11.766438    12.310343    14.522212    -0.556209    9.498545    15.700875    13.904681    27.515522    -1.706435    -0.437368    -8.159204    29.997540    -22.011538    -17.426907    -23.787376    29.968794    0.000000    0.000000    0.000000    -17.128777    -30.690983    3.037864    14.076021    36.243359    -9.874323    3.758286    -3.386508    -12.872864    0.000000    0.000000    0.000000    
57.740360    153.033569    -73.975060    -1.488212    1.986764    13.981129    2.722337    1.255528    -1.020344    -11.302145    -1.877879    -0.513618    17.037977    3.321404    5.480137    0.200842    -3.397315    3.695146    14.109063    -3.572033    -14.581568    -20.124367    -27.944889    -29.849773    -17.139116    -32.507366    -99.631439    -29.777582    -41.143879    -35.766857    -15.770523    -0.861727    -4.798099    17.203646    18.808975    11.740026    12.217506    14.403238    -0.453189    9.561888    15.577336    13.884292    27.404802    -1.832737    -0.466929    -8.282581    30.309793    -21.951546    -17.070127    -24.026949    29.984205    0.000000    0.000000    0.000000    -17.267393    -30.581890    2.873299    13.873989    36.033958    -9.797733    3.943357    -3.157444    -12.757219    0.000000    0.000000    0.000000    
58.167915    153.031326    -74.167717    -1.526139    1.912908    13.986225    2.689335    1.252752    -1.014290    -11.262756    -1.810398    -0.504448    17.121626    3.380849    5.484504    0.094444    -3.458419    3.680513    14.137910    -3.526330    -14.553369    -20.093895    -27.916220    -29.848150    -17.211363    -32.533722    -99.615387    -29.759945    -41.249126    -35.705517    -15.759900    -0.869623    -4.802096    17.259090    18.749870    11.689913    12.273767    14.429763    -0.448023    9.627412    15.606200    13.824198    27.314987    -1.905151    -0.567727    -8.417075    30.582260    -21.913260    -16.690561    -24.281919    30.059566    0.000000    0.000000    0.000000    -17.388891    -30.397448    2.776834    13.741519    35.743061    -9.689053    4.106720    -2.955717    -12.742082    0.000000    0.000000    0.000000    
58.567410    153.033066    -74.364449    -1.574780    1.869356    13.990314    2.677142    1.238982    -1.002226    -11.251631    -1.766811    -0.496067    17.196163    3.356213    5.499741    0.018373    -3.404256    3.670432    14.169044    -3.519047    -14.584602    -20.029663    -27.844168    -29.737635    -17.214977    -32.580765    -99.608887    -29.731453    -41.302982    -35.693127    -15.734286    -0.862654    -4.842562    17.307583    18.686165    11.706193    12.337008    14.484339    -0.510717    9.580720    15.665613    13.871471    27.259567    -1.966567    -0.693174    -8.563784    30.845959    -21.807470    -16.370478    -24.559650    29.973053    0.000000    0.000000    0.000000    -17.488775    -30.264582    2.625549    13.552238    35.490589    -9.515795    4.281534    -2.737470    -12.735666    0.000000    0.000000    0.000000    
58.944790    153.041595    -74.542427    -1.645066    1.820276    13.990270    2.788679    1.236972    -1.012166    -11.523268    -1.430538    -0.469553    17.453573    2.509460    5.609474    0.013339    -2.815999    3.619030    14.614015    -3.767045    -14.019749    -20.448170    -27.724943    -30.252628    -17.240135    -32.569870    -99.638199    -29.606762    -41.380318    -35.590984    -15.466483    -1.213919    -5.299467    17.142323    18.943617    11.906877    12.267265    14.479887    -0.333382    9.662423    15.655071    13.906601    27.198690    -2.048358    -0.751265    -8.655071    31.075918    -21.786270    -16.030008    -24.777185    30.038937    0.000000    0.000000    0.000000    -17.531794    -30.131987    2.514718    13.343315    35.245453    -9.401059    4.455832    -2.515430    -12.693480    0.000000    0.000000    0.000000    
59.311749    153.057678    -74.695267    -1.693038    1.771170    13.962036    2.760090    1.198300    -0.949969    -11.468519    -1.384617    -0.443828    17.486799    2.569594    5.607364    -0.052082    -2.817528    3.611127    14.610517    -3.716235    -14.092561    -20.445423    -27.786722    -30.169243    -17.298431    -32.465458    -99.610786    -29.590162    -41.338451    -35.592545    -15.459229    -1.177585    -5.326188    17.181671    18.968090    11.883268    12.268302    14.482020    -0.323857    9.654011    15.653745    13.888825    27.109493    -2.085483    -0.804756    -8.729598    31.266331    -21.798763    -15.669792    -24.977673    30.167084    0.000000    0.000000    0.000000    -17.580875    -30.007215    2.515940    13.216351    34.992710    -9.394215    4.644171    -2.300008    -12.662749    0.000000    0.000000    0.000000    
59.680504    153.076508    -74.838387    -1.735859    1.738147    13.938000    2.799155    1.231407    -0.911348    -11.502863    -1.437384    -0.436389    17.447826    2.420401    5.602786    -0.015019    -2.577844    3.594140    14.601398    -3.670169    -13.996825    -20.507113    -27.792334    -30.242867    -17.382565    -32.356213    -99.610497    -29.476971    -41.377586    -35.464607    -15.450791    -1.154724    -5.456328    17.180365    18.843658    11.980726    12.404545    14.533694    -0.378846    9.545544    15.702866    13.942895    26.988676    -2.118769    -0.834235    -8.739346    31.421776    -21.841871    -15.340848    -25.179035    30.277956    0.000000    0.000000    0.000000    -17.644943    -29.883703    2.463714    13.060193    34.743408    -9.293304    4.791691    -2.091135    -12.647221    0.000000    0.000000    0.000000    
